<?xml version="1.0" standalone="no"?>
<!DOCTYPE svg PUBLIC "-//W3C//DTD SVG 20010904//EN"
 "http://www.w3.org/TR/2001/REC-SVG-20010904/DTD/svg10.dtd">
<svg version="1.0" xmlns="http://www.w3.org/2000/svg"
 width="500.000000pt" height="500.000000pt" viewBox="0 0 500.000000 500.000000"
 preserveAspectRatio="xMidYMid meet">

<g transform="translate(0.000000,500.000000) scale(0.100000,-0.100000)"
fill="#000000" stroke="none">
<path d="M2501 3196 c-28 -33 -51 -131 -51 -215 0 -106 16 -172 74 -299 67
-147 79 -188 83 -292 4 -83 1 -105 -21 -169 -14 -41 -23 -77 -21 -79 13 -14
138 64 183 112 173 190 200 510 64 754 -51 91 -146 165 -247 191 -51 14 -50
14 -64 -3z"/>
<path d="M2390 3186 c-50 -17 -123 -69 -160 -113 -50 -61 -100 -171 -115 -258
-21 -120 -23 -116 44 -147 207 -97 331 -281 319 -476 -2 -46 0 -57 12 -57 27
0 53 100 52 200 -1 103 -14 151 -91 326 -61 138 -75 205 -67 319 5 84 16 125
48 188 18 36 13 38 -42 18z"/>
<path d="M1317 1753 c-4 -3 -7 -57 -7 -120 l0 -113 79 0 c62 0 84 4 102 18 28
23 31 76 4 95 -15 11 -15 17 -5 34 18 29 5 72 -26 83 -29 11 -137 13 -147 3z
m133 -48 c19 -23 -5 -45 -51 -45 -37 0 -39 2 -39 30 0 28 2 30 39 30 22 0 44
-6 51 -15z m18 -109 c5 -25 -14 -36 -65 -36 -41 0 -43 1 -43 31 l0 30 52 -3
c42 -2 54 -7 56 -22z"/>
<path d="M1570 1640 l0 -120 90 0 c83 0 90 1 90 20 0 18 -7 20 -65 20 l-65 0
0 30 0 30 60 0 c53 0 60 2 60 20 0 18 -7 20 -60 20 l-60 0 0 30 0 30 65 0 c58
0 65 2 65 20 0 19 -7 20 -90 20 l-90 0 0 -120z"/>
<path d="M1853 1658 c-60 -146 -58 -138 -34 -138 15 0 25 9 32 30 10 29 14 30
68 30 54 0 57 -2 68 -30 8 -20 18 -30 32 -30 12 0 21 4 21 8 0 4 -22 57 -48
117 -41 94 -51 110 -72 113 -23 2 -29 -7 -67 -100z m82 12 c21 -41 19 -50 -15
-50 -16 0 -30 4 -30 9 0 12 21 71 26 71 2 0 10 -13 19 -30z"/>
<path d="M2100 1640 c0 -113 1 -120 20 -120 18 0 20 7 20 75 0 41 3 75 8 75 4
0 32 -34 62 -75 40 -55 60 -74 75 -73 19 3 20 11 20 118 0 111 -1 115 -22 118
-21 3 -22 -1 -25 -75 l-3 -78 -59 78 c-36 48 -65 77 -77 77 -18 0 -19 -9 -19
-120z"/>
<path d="M2500 1640 c0 -73 4 -120 10 -120 11 0 13 15 10 73 l-2 37 76 0 76 0
0 -55 c0 -30 5 -55 10 -55 6 0 10 47 10 120 0 69 -4 120 -9 120 -6 0 -11 -24
-13 -52 l-3 -53 -70 0 -70 0 -3 53 c-2 28 -7 52 -13 52 -5 0 -9 -51 -9 -120z"/>
<path d="M2819 1743 c-104 -64 -60 -223 61 -223 67 0 120 53 120 120 0 91
-105 150 -181 103z m120 -29 c80 -67 26 -187 -77 -170 -62 9 -94 77 -68 140
25 59 93 74 145 30z"/>
<path d="M3040 1750 c0 -5 18 -10 40 -10 l40 0 0 -110 c0 -91 3 -110 15 -110
12 0 15 19 15 110 l0 110 40 0 c22 0 40 5 40 10 0 6 -38 10 -95 10 -57 0 -95
-4 -95 -10z"/>
<path d="M3290 1640 l0 -120 85 0 c104 0 114 18 13 22 l-73 3 -3 43 -3 42 65
0 c37 0 66 4 66 10 0 6 -28 10 -65 10 l-65 0 0 45 0 45 75 0 c43 0 75 4 75 10
0 6 -35 10 -85 10 l-85 0 0 -120z"/>
<path d="M3530 1641 l0 -121 80 0 c47 0 80 4 80 10 0 6 -28 10 -65 10 l-64 0
-3 107 c-2 74 -7 108 -15 111 -10 3 -13 -25 -13 -117z"/>
<path d="M1751 1404 c0 -11 3 -14 6 -6 3 7 2 16 -1 19 -3 4 -6 -2 -5 -13z"/>
<path d="M1917 1406 c-4 -10 -1 -13 8 -9 8 3 12 9 9 14 -7 12 -11 11 -17 -5z"/>
<path d="M3063 1385 c0 -22 2 -30 4 -17 2 12 2 30 0 40 -3 9 -5 -1 -4 -23z"/>
<path d="M1592 1390 c-9 -15 -9 -21 1 -26 6 -4 9 -4 5 1 -4 4 -3 14 4 22 6 7
9 15 7 18 -3 2 -10 -4 -17 -15z"/>
<path d="M2751 1392 c-1 -16 -5 -21 -13 -16 -8 5 -7 0 2 -11 13 -16 15 -16 18
-2 2 10 1 25 -1 35 -3 12 -5 11 -6 -6z"/>
<path d="M3626 1397 c3 -10 9 -15 12 -12 3 3 0 11 -7 18 -10 9 -11 8 -5 -6z"/>
<path d="M3660 1406 c0 -2 8 -10 18 -17 15 -13 16 -12 3 4 -13 16 -21 21 -21
13z"/>
<path d="M1831 1372 c1 -16 3 -20 6 -10 2 9 12 18 21 20 13 3 12 5 -5 10 -20
5 -23 2 -22 -20z"/>
<path d="M2447 1386 c-4 -10 -1 -13 8 -9 8 3 12 9 9 14 -7 12 -11 11 -17 -5z"/>
<path d="M2671 1384 c0 -11 3 -14 6 -6 3 7 2 16 -1 19 -3 4 -6 -2 -5 -13z"/>
<path d="M3260 1396 c0 -3 9 -10 20 -16 11 -6 20 -8 20 -6 0 3 -9 10 -20 16
-11 6 -20 8 -20 6z"/>
<path d="M1423 1383 c9 -2 23 -2 30 0 6 3 -1 5 -18 5 -16 0 -22 -2 -12 -5z"/>
<path d="M1498 1383 c6 -2 18 -2 25 0 6 3 1 5 -13 5 -14 0 -19 -2 -12 -5z"/>
<path d="M2115 1380 c3 -5 8 -10 11 -10 2 0 4 5 4 10 0 6 -5 10 -11 10 -5 0
-7 -4 -4 -10z"/>
<path d="M2800 1387 c0 -2 6 -10 14 -16 11 -9 16 -9 22 1 4 7 4 10 -1 6 -4 -4
-14 -3 -22 3 -7 6 -13 9 -13 6z"/>
<path d="M2868 1383 c6 -2 18 -2 25 0 6 3 1 5 -13 5 -14 0 -19 -2 -12 -5z"/>
<path d="M3350 1381 c0 -5 9 -7 20 -4 11 3 20 7 20 9 0 2 -9 4 -20 4 -11 0
-20 -4 -20 -9z"/>
</g>
</svg>
